<mxfile host="app.diagrams.net" modified="2023-07-19T16:03:51.836Z" agent="Mozilla/5.0 (Windows NT 10.0; Win64; x64) AppleWebKit/537.36 (KHTML, like Gecko) Chrome/113.0.0.0 Safari/537.36 OPR/99.0.0.0" etag="nF34R4mCJZIMZ0DOcsqd" version="21.6.3" type="device">
  <diagram id="C5RBs43oDa-KdzZeNtuy" name="Page-1">
    <mxGraphModel dx="2033" dy="1149" grid="1" gridSize="10" guides="1" tooltips="1" connect="1" arrows="1" fold="1" page="1" pageScale="1" pageWidth="827" pageHeight="1169" math="0" shadow="0">
      <root>
        <mxCell id="WIyWlLk6GJQsqaUBKTNV-0" />
        <mxCell id="WIyWlLk6GJQsqaUBKTNV-1" parent="WIyWlLk6GJQsqaUBKTNV-0" />
        <mxCell id="WIyWlLk6GJQsqaUBKTNV-3" value="Patient logs in" style="rounded=1;whiteSpace=wrap;html=1;fontSize=12;glass=0;strokeWidth=1;shadow=0;" parent="WIyWlLk6GJQsqaUBKTNV-1" vertex="1">
          <mxGeometry x="330" y="30" width="120" height="40" as="geometry" />
        </mxCell>
        <mxCell id="ihMthXJXGGhB9N9HHziz-14" value="" style="group;rounded=1;shadow=0;fillColor=#008a00;strokeColor=#005700;perimeterSpacing=50;glass=0;fontColor=#ffffff;rotation=0;strokeWidth=5;verticalAlign=middle;fontSize=17;whiteSpace=wrap;html=1;" vertex="1" connectable="0" parent="WIyWlLk6GJQsqaUBKTNV-1">
          <mxGeometry x="39.5" y="110" width="470" height="300" as="geometry" />
        </mxCell>
        <mxCell id="ihMthXJXGGhB9N9HHziz-8" value="API request for all clincial trials from clinical trials.gov" style="whiteSpace=wrap;html=1;rounded=1;glass=0;strokeWidth=1;shadow=0;" vertex="1" parent="ihMthXJXGGhB9N9HHziz-14">
          <mxGeometry x="15.44" y="25" width="134.56" height="65" as="geometry" />
        </mxCell>
        <mxCell id="ihMthXJXGGhB9N9HHziz-10" value="Use matchminer to convert to ctml (might be able to skip clinical trials.gov if matchminer has a list of all clinical trials itself." style="whiteSpace=wrap;html=1;rounded=1;glass=0;strokeWidth=1;shadow=0;" vertex="1" parent="ihMthXJXGGhB9N9HHziz-14">
          <mxGeometry x="266.15" y="152.24" width="172.72" height="88.67" as="geometry" />
        </mxCell>
        <mxCell id="ihMthXJXGGhB9N9HHziz-24" style="edgeStyle=orthogonalEdgeStyle;rounded=0;orthogonalLoop=1;jettySize=auto;html=1;" edge="1" parent="ihMthXJXGGhB9N9HHziz-14" source="ihMthXJXGGhB9N9HHziz-22" target="ihMthXJXGGhB9N9HHziz-10">
          <mxGeometry relative="1" as="geometry" />
        </mxCell>
        <mxCell id="ihMthXJXGGhB9N9HHziz-35" value="" style="edgeStyle=orthogonalEdgeStyle;rounded=0;orthogonalLoop=1;jettySize=auto;html=1;" edge="1" parent="ihMthXJXGGhB9N9HHziz-14" source="ihMthXJXGGhB9N9HHziz-22" target="ihMthXJXGGhB9N9HHziz-10">
          <mxGeometry relative="1" as="geometry" />
        </mxCell>
        <mxCell id="ihMthXJXGGhB9N9HHziz-22" value="Filter out only Cancer clinical trials" style="whiteSpace=wrap;html=1;rounded=1;glass=0;strokeWidth=1;shadow=0;" vertex="1" parent="ihMthXJXGGhB9N9HHziz-14">
          <mxGeometry x="270" y="23.3" width="165.03" height="68.39" as="geometry" />
        </mxCell>
        <mxCell id="ihMthXJXGGhB9N9HHziz-23" value="" style="edgeStyle=orthogonalEdgeStyle;rounded=0;orthogonalLoop=1;jettySize=auto;html=1;" edge="1" parent="ihMthXJXGGhB9N9HHziz-14" source="ihMthXJXGGhB9N9HHziz-8" target="ihMthXJXGGhB9N9HHziz-22">
          <mxGeometry relative="1" as="geometry" />
        </mxCell>
        <mxCell id="ihMthXJXGGhB9N9HHziz-31" value="store list of requirements for each clinical trial and the valid patient data which would let them participate. this could be some type of dictionary of sorts" style="whiteSpace=wrap;html=1;rounded=1;glass=0;strokeWidth=1;shadow=0;" vertex="1" parent="ihMthXJXGGhB9N9HHziz-14">
          <mxGeometry x="15.439999999999998" y="152.24" width="217.62" height="96.43" as="geometry" />
        </mxCell>
        <mxCell id="ihMthXJXGGhB9N9HHziz-32" value="" style="edgeStyle=orthogonalEdgeStyle;rounded=0;orthogonalLoop=1;jettySize=auto;html=1;entryX=1;entryY=0.5;entryDx=0;entryDy=0;exitX=0;exitY=0.5;exitDx=0;exitDy=0;" edge="1" parent="ihMthXJXGGhB9N9HHziz-14" source="ihMthXJXGGhB9N9HHziz-10" target="ihMthXJXGGhB9N9HHziz-31">
          <mxGeometry relative="1" as="geometry">
            <Array as="points">
              <mxPoint x="335.7142857142857" y="200.59701492537314" />
              <mxPoint x="335.7142857142857" y="200.59701492537314" />
            </Array>
          </mxGeometry>
        </mxCell>
        <mxCell id="ihMthXJXGGhB9N9HHziz-29" value="" style="group" vertex="1" connectable="0" parent="WIyWlLk6GJQsqaUBKTNV-1">
          <mxGeometry x="540" y="220" width="280" height="150" as="geometry" />
        </mxCell>
        <mxCell id="ihMthXJXGGhB9N9HHziz-27" value="&lt;p style=&quot;line-height: 120%;&quot;&gt;&lt;br&gt;&lt;/p&gt;" style="ellipse;shape=cloud;whiteSpace=wrap;html=1;" vertex="1" parent="ihMthXJXGGhB9N9HHziz-29">
          <mxGeometry width="280" height="150" as="geometry" />
        </mxCell>
        <mxCell id="ihMthXJXGGhB9N9HHziz-28" value="Update list of clinical trials and their requirements (may be done periodically instead in the future)" style="text;html=1;strokeColor=none;fillColor=none;align=center;verticalAlign=middle;whiteSpace=wrap;rounded=0;" vertex="1" parent="ihMthXJXGGhB9N9HHziz-29">
          <mxGeometry x="50" y="60" width="190" height="30" as="geometry" />
        </mxCell>
        <mxCell id="ihMthXJXGGhB9N9HHziz-18" style="edgeStyle=orthogonalEdgeStyle;rounded=0;orthogonalLoop=1;jettySize=auto;html=1;" edge="1" parent="WIyWlLk6GJQsqaUBKTNV-1" source="WIyWlLk6GJQsqaUBKTNV-3" target="ihMthXJXGGhB9N9HHziz-8">
          <mxGeometry relative="1" as="geometry" />
        </mxCell>
        <mxCell id="ihMthXJXGGhB9N9HHziz-41" value="" style="edgeStyle=orthogonalEdgeStyle;rounded=0;orthogonalLoop=1;jettySize=auto;html=1;" edge="1" parent="WIyWlLk6GJQsqaUBKTNV-1" source="ihMthXJXGGhB9N9HHziz-38" target="ihMthXJXGGhB9N9HHziz-40">
          <mxGeometry relative="1" as="geometry" />
        </mxCell>
        <mxCell id="ihMthXJXGGhB9N9HHziz-38" value="Find entropy of data set after having acquired each possible patient property" style="whiteSpace=wrap;html=1;rounded=1;glass=0;strokeWidth=1;shadow=0;" vertex="1" parent="WIyWlLk6GJQsqaUBKTNV-1">
          <mxGeometry x="100" y="525.01" width="120" height="85" as="geometry" />
        </mxCell>
        <mxCell id="ihMthXJXGGhB9N9HHziz-39" value="" style="edgeStyle=orthogonalEdgeStyle;rounded=0;orthogonalLoop=1;jettySize=auto;html=1;" edge="1" parent="WIyWlLk6GJQsqaUBKTNV-1" source="ihMthXJXGGhB9N9HHziz-31" target="ihMthXJXGGhB9N9HHziz-38">
          <mxGeometry relative="1" as="geometry" />
        </mxCell>
        <mxCell id="ihMthXJXGGhB9N9HHziz-43" value="" style="edgeStyle=orthogonalEdgeStyle;rounded=0;orthogonalLoop=1;jettySize=auto;html=1;" edge="1" parent="WIyWlLk6GJQsqaUBKTNV-1" source="ihMthXJXGGhB9N9HHziz-40" target="ihMthXJXGGhB9N9HHziz-42">
          <mxGeometry relative="1" as="geometry" />
        </mxCell>
        <mxCell id="ihMthXJXGGhB9N9HHziz-40" value="Determine the question which has the most information gain based on the entropy (we could look for max entropy which would most evenly split the remaining trials)" style="whiteSpace=wrap;html=1;rounded=1;glass=0;strokeWidth=1;shadow=0;" vertex="1" parent="WIyWlLk6GJQsqaUBKTNV-1">
          <mxGeometry x="260" y="506.27" width="140" height="122.49" as="geometry" />
        </mxCell>
        <mxCell id="ihMthXJXGGhB9N9HHziz-45" value="" style="edgeStyle=orthogonalEdgeStyle;rounded=0;orthogonalLoop=1;jettySize=auto;html=1;" edge="1" parent="WIyWlLk6GJQsqaUBKTNV-1" source="ihMthXJXGGhB9N9HHziz-42" target="ihMthXJXGGhB9N9HHziz-44">
          <mxGeometry relative="1" as="geometry" />
        </mxCell>
        <mxCell id="ihMthXJXGGhB9N9HHziz-42" value="Use an LLM to acquire the patient property. (use the type of prompt I had used before to acquire information)&lt;br&gt;This will result in a loop that will only break once the user provides the information or can&#39;t acquiire the information themselves to provide it. the LLM will not take not understanding the property as a valid answer, instead it will explain" style="whiteSpace=wrap;html=1;rounded=1;glass=0;strokeWidth=1;shadow=0;" vertex="1" parent="WIyWlLk6GJQsqaUBKTNV-1">
          <mxGeometry x="430" y="475.65" width="200" height="183.73" as="geometry" />
        </mxCell>
        <mxCell id="ihMthXJXGGhB9N9HHziz-47" value="" style="edgeStyle=orthogonalEdgeStyle;rounded=0;orthogonalLoop=1;jettySize=auto;html=1;" edge="1" parent="WIyWlLk6GJQsqaUBKTNV-1" source="ihMthXJXGGhB9N9HHziz-44" target="ihMthXJXGGhB9N9HHziz-46">
          <mxGeometry relative="1" as="geometry" />
        </mxCell>
        <mxCell id="ihMthXJXGGhB9N9HHziz-44" value="Update list of clincial trials which are still available after taking previous answer into account" style="whiteSpace=wrap;html=1;rounded=1;glass=0;strokeWidth=1;shadow=0;" vertex="1" parent="WIyWlLk6GJQsqaUBKTNV-1">
          <mxGeometry x="650" y="521.27" width="150" height="92.49" as="geometry" />
        </mxCell>
        <mxCell id="ihMthXJXGGhB9N9HHziz-49" value="" style="edgeStyle=orthogonalEdgeStyle;rounded=0;orthogonalLoop=1;jettySize=auto;html=1;" edge="1" parent="WIyWlLk6GJQsqaUBKTNV-1" source="ihMthXJXGGhB9N9HHziz-46" target="ihMthXJXGGhB9N9HHziz-48">
          <mxGeometry relative="1" as="geometry">
            <Array as="points">
              <mxPoint x="620" y="710" />
              <mxPoint x="620" y="710" />
            </Array>
          </mxGeometry>
        </mxCell>
        <mxCell id="ihMthXJXGGhB9N9HHziz-46" value="Remove previous property from list of unkown properties" style="whiteSpace=wrap;html=1;rounded=1;glass=0;strokeWidth=1;shadow=0;" vertex="1" parent="WIyWlLk6GJQsqaUBKTNV-1">
          <mxGeometry x="665" y="679.995" width="120" height="60" as="geometry" />
        </mxCell>
        <mxCell id="ihMthXJXGGhB9N9HHziz-50" style="edgeStyle=orthogonalEdgeStyle;rounded=0;orthogonalLoop=1;jettySize=auto;html=1;exitX=0;exitY=1;exitDx=0;exitDy=0;entryX=0.5;entryY=0;entryDx=0;entryDy=0;" edge="1" parent="WIyWlLk6GJQsqaUBKTNV-1" source="ihMthXJXGGhB9N9HHziz-48" target="ihMthXJXGGhB9N9HHziz-54">
          <mxGeometry relative="1" as="geometry">
            <Array as="points">
              <mxPoint x="195" y="820" />
            </Array>
          </mxGeometry>
        </mxCell>
        <mxCell id="ihMthXJXGGhB9N9HHziz-56" value="&lt;font style=&quot;font-size: 20px;&quot;&gt;Yes&lt;/font&gt;" style="edgeLabel;html=1;align=center;verticalAlign=middle;resizable=0;points=[];" vertex="1" connectable="0" parent="ihMthXJXGGhB9N9HHziz-50">
          <mxGeometry x="-0.4464" relative="1" as="geometry">
            <mxPoint as="offset" />
          </mxGeometry>
        </mxCell>
        <mxCell id="ihMthXJXGGhB9N9HHziz-57" style="edgeStyle=orthogonalEdgeStyle;rounded=0;orthogonalLoop=1;jettySize=auto;html=1;exitX=1;exitY=1;exitDx=0;exitDy=0;entryX=0.5;entryY=0;entryDx=0;entryDy=0;" edge="1" parent="WIyWlLk6GJQsqaUBKTNV-1" source="ihMthXJXGGhB9N9HHziz-48" target="ihMthXJXGGhB9N9HHziz-69">
          <mxGeometry relative="1" as="geometry">
            <mxPoint x="705" y="860" as="targetPoint" />
          </mxGeometry>
        </mxCell>
        <mxCell id="ihMthXJXGGhB9N9HHziz-58" value="&lt;font style=&quot;font-size: 20px;&quot;&gt;No&lt;/font&gt;" style="edgeLabel;html=1;align=center;verticalAlign=middle;resizable=0;points=[];" vertex="1" connectable="0" parent="ihMthXJXGGhB9N9HHziz-57">
          <mxGeometry x="-0.431" y="-2" relative="1" as="geometry">
            <mxPoint x="-1" as="offset" />
          </mxGeometry>
        </mxCell>
        <mxCell id="ihMthXJXGGhB9N9HHziz-48" value="Are there any clincial trials left?" style="rhombus;whiteSpace=wrap;html=1;rounded=1;glass=0;strokeWidth=1;shadow=0;" vertex="1" parent="WIyWlLk6GJQsqaUBKTNV-1">
          <mxGeometry x="349" y="730" width="130" height="120.01" as="geometry" />
        </mxCell>
        <mxCell id="ihMthXJXGGhB9N9HHziz-59" style="edgeStyle=orthogonalEdgeStyle;rounded=0;orthogonalLoop=1;jettySize=auto;html=1;exitX=0;exitY=0;exitDx=0;exitDy=0;entryX=0.5;entryY=1;entryDx=0;entryDy=0;" edge="1" parent="WIyWlLk6GJQsqaUBKTNV-1" source="ihMthXJXGGhB9N9HHziz-54" target="ihMthXJXGGhB9N9HHziz-38">
          <mxGeometry relative="1" as="geometry" />
        </mxCell>
        <mxCell id="ihMthXJXGGhB9N9HHziz-60" value="&lt;font style=&quot;font-size: 20px;&quot;&gt;No&lt;/font&gt;" style="edgeLabel;html=1;align=center;verticalAlign=middle;resizable=0;points=[];" vertex="1" connectable="0" parent="ihMthXJXGGhB9N9HHziz-59">
          <mxGeometry x="-0.1929" y="2" relative="1" as="geometry">
            <mxPoint as="offset" />
          </mxGeometry>
        </mxCell>
        <mxCell id="ihMthXJXGGhB9N9HHziz-65" style="edgeStyle=orthogonalEdgeStyle;rounded=0;orthogonalLoop=1;jettySize=auto;html=1;exitX=1;exitY=0.5;exitDx=0;exitDy=0;entryX=0.5;entryY=0;entryDx=0;entryDy=0;" edge="1" parent="WIyWlLk6GJQsqaUBKTNV-1" source="ihMthXJXGGhB9N9HHziz-54" target="ihMthXJXGGhB9N9HHziz-61">
          <mxGeometry relative="1" as="geometry" />
        </mxCell>
        <mxCell id="ihMthXJXGGhB9N9HHziz-66" value="&lt;font style=&quot;font-size: 20px;&quot;&gt;Yes&lt;/font&gt;" style="edgeLabel;html=1;align=center;verticalAlign=middle;resizable=0;points=[];" vertex="1" connectable="0" parent="ihMthXJXGGhB9N9HHziz-65">
          <mxGeometry x="-0.2002" y="-1" relative="1" as="geometry">
            <mxPoint as="offset" />
          </mxGeometry>
        </mxCell>
        <mxCell id="ihMthXJXGGhB9N9HHziz-54" value="Have you asked all of the questions?" style="rhombus;whiteSpace=wrap;html=1;rounded=1;glass=0;strokeWidth=1;shadow=0;" vertex="1" parent="WIyWlLk6GJQsqaUBKTNV-1">
          <mxGeometry x="130" y="860" width="130" height="120.01" as="geometry" />
        </mxCell>
        <mxCell id="ihMthXJXGGhB9N9HHziz-61" value="Use an LLM to Inform the patient of the remaining clinical trials which appear to be suitable. Remind them that they still need to visit a medical facility to be sure." style="whiteSpace=wrap;html=1;rounded=1;glass=0;strokeWidth=1;shadow=0;" vertex="1" parent="WIyWlLk6GJQsqaUBKTNV-1">
          <mxGeometry x="318.5" y="990" width="191" height="110" as="geometry" />
        </mxCell>
        <mxCell id="ihMthXJXGGhB9N9HHziz-69" value="Use an LLM to Inform the patient that it looks like there aren&#39;t any clinical trials available" style="whiteSpace=wrap;html=1;rounded=1;glass=0;strokeWidth=1;shadow=0;" vertex="1" parent="WIyWlLk6GJQsqaUBKTNV-1">
          <mxGeometry x="657.5" y="870" width="135" height="79.98" as="geometry" />
        </mxCell>
      </root>
    </mxGraphModel>
  </diagram>
</mxfile>
